SplineFontDB: 3.0
FontName: DSEG7ModernMini-BoldItalic
FullName: DSEG7 Modern Mini-Bold Italic
FamilyName: DSEG7 Modern Mini
Weight: Bold
Copyright: Created by Keshikan(https://twitter.com/keshinomi_88pro)\nwith FontForge 2.0 (http://fontforge.sf.net)
UComments: "2014-8-31: Created."
Version: 0.46
ItalicAngle: -5
UnderlinePosition: -100
UnderlineWidth: 50
Ascent: 1000
Descent: 0
InvalidEm: 0
LayerCount: 2
Layer: 0 0 "+gMyXYgAA" 1
Layer: 1 0 "+Uk2XYgAA" 0
XUID: [1021 682 390630330 14528854]
FSType: 8
OS2Version: 0
OS2_WeightWidthSlopeOnly: 0
OS2_UseTypoMetrics: 1
CreationTime: 1409488158
ModificationTime: 1584231432
PfmFamily: 17
TTFWeight: 700
TTFWidth: 5
LineGap: 90
VLineGap: 0
Panose: 2 0 8 3 0 0 0 10 0 0
OS2TypoAscent: 0
OS2TypoAOffset: 1
OS2TypoDescent: 0
OS2TypoDOffset: 1
OS2TypoLinegap: 90
OS2WinAscent: 0
OS2WinAOffset: 1
OS2WinDescent: 0
OS2WinDOffset: 1
HheadAscent: 0
HheadAOffset: 1
HheadDescent: 0
HheadDOffset: 1
OS2Vendor: 'PfEd'
MarkAttachClasses: 1
DEI: 91125

StartChar: zero
Encoding: 48 48 0
Width: 816
VWidth: 200
Flags: HW
LayerCount: 2
Fore
SplineSet
94 438 m 1
 211 367 l 1
 200 247 l 1
 59 34 l 1
 59 41 l 1
 94 438 l 1
650 531 m 1
 716 490 l 1
 678 52 l 1
 560 124 l 1
 588 438 l 1
 650 531 l 1
166 469 m 1
 100 510 l 1
 138 948 l 1
 256 876 l 1
 228 562 l 1
 166 469 l 1
605 633 m 1
 616 753 l 1
 757 966 l 1
 757 959 l 1
 722 562 l 1
 605 633 l 1
437 124 m 1
 639 1 l 1
 637 1 634 0 632 0 c 2
 107 0 l 1
 190 124 l 1
 437 124 l 1
379 876 m 1
 177 999 l 1
 179 999 182 1000 184 1000 c 2
 709 1000 l 1
 626 876 l 1
 379 876 l 1
EndSplineSet
EndChar

StartChar: eight
Encoding: 56 56 1
Width: 816
VWidth: 200
Flags: HW
LayerCount: 2
Fore
SplineSet
94 438 m 1
 211 367 l 1
 200 247 l 1
 59 34 l 1
 59 41 l 1
 94 438 l 1
650 531 m 1
 716 490 l 1
 678 52 l 1
 560 124 l 1
 588 438 l 1
 650 531 l 1
517 438 m 1
 217 438 l 1
 299 562 l 1
 599 562 l 1
 517 438 l 1
166 469 m 1
 100 510 l 1
 138 948 l 1
 256 876 l 1
 228 562 l 1
 166 469 l 1
605 633 m 1
 616 753 l 1
 757 966 l 1
 757 959 l 1
 722 562 l 1
 605 633 l 1
437 124 m 1
 639 1 l 1
 637 1 634 0 632 0 c 2
 107 0 l 1
 190 124 l 1
 437 124 l 1
379 876 m 1
 177 999 l 1
 179 999 182 1000 184 1000 c 2
 709 1000 l 1
 626 876 l 1
 379 876 l 1
EndSplineSet
EndChar

StartChar: one
Encoding: 49 49 2
Width: 816
VWidth: 200
Flags: HW
LayerCount: 2
Fore
SplineSet
650 531 m 1
 716 490 l 1
 678 52 l 1
 560 124 l 1
 588 438 l 1
 650 531 l 1
605 633 m 1
 616 753 l 1
 757 966 l 1
 757 959 l 1
 722 562 l 1
 605 633 l 1
EndSplineSet
EndChar

StartChar: two
Encoding: 50 50 3
Width: 816
VWidth: 200
Flags: HW
LayerCount: 2
Fore
SplineSet
94 438 m 1
 211 367 l 1
 200 247 l 1
 59 34 l 1
 59 41 l 1
 94 438 l 1
517 438 m 1
 217 438 l 1
 299 562 l 1
 599 562 l 1
 517 438 l 1
605 633 m 1
 616 753 l 1
 757 966 l 1
 757 959 l 1
 722 562 l 1
 605 633 l 1
437 124 m 1
 639 1 l 1
 637 1 634 0 632 0 c 2
 107 0 l 1
 190 124 l 1
 437 124 l 1
379 876 m 1
 177 999 l 1
 179 999 182 1000 184 1000 c 2
 709 1000 l 1
 626 876 l 1
 379 876 l 1
EndSplineSet
EndChar

StartChar: three
Encoding: 51 51 4
Width: 816
VWidth: 200
Flags: HW
LayerCount: 2
Fore
SplineSet
650 531 m 1
 716 490 l 1
 678 52 l 1
 560 124 l 1
 588 438 l 1
 650 531 l 1
517 438 m 1
 217 438 l 1
 299 562 l 1
 599 562 l 1
 517 438 l 1
605 633 m 1
 616 753 l 1
 757 966 l 1
 757 959 l 1
 722 562 l 1
 605 633 l 1
437 124 m 1
 639 1 l 1
 637 1 634 0 632 0 c 2
 107 0 l 1
 190 124 l 1
 437 124 l 1
379 876 m 1
 177 999 l 1
 179 999 182 1000 184 1000 c 2
 709 1000 l 1
 626 876 l 1
 379 876 l 1
EndSplineSet
EndChar

StartChar: four
Encoding: 52 52 5
Width: 816
VWidth: 200
Flags: HW
LayerCount: 2
Fore
SplineSet
650 531 m 1
 716 490 l 1
 678 52 l 1
 560 124 l 1
 588 438 l 1
 650 531 l 1
517 438 m 1
 217 438 l 1
 299 562 l 1
 599 562 l 1
 517 438 l 1
166 469 m 1
 100 510 l 1
 138 948 l 1
 256 876 l 1
 228 562 l 1
 166 469 l 1
605 633 m 1
 616 753 l 1
 757 966 l 1
 757 959 l 1
 722 562 l 1
 605 633 l 1
EndSplineSet
EndChar

StartChar: five
Encoding: 53 53 6
Width: 816
VWidth: 200
Flags: HW
LayerCount: 2
Fore
SplineSet
650 531 m 1
 716 490 l 1
 678 52 l 1
 560 124 l 1
 588 438 l 1
 650 531 l 1
517 438 m 1
 217 438 l 1
 299 562 l 1
 599 562 l 1
 517 438 l 1
166 469 m 1
 100 510 l 1
 138 948 l 1
 256 876 l 1
 228 562 l 1
 166 469 l 1
437 124 m 1
 639 1 l 1
 637 1 634 0 632 0 c 2
 107 0 l 1
 190 124 l 1
 437 124 l 1
379 876 m 1
 177 999 l 1
 179 999 182 1000 184 1000 c 2
 709 1000 l 1
 626 876 l 1
 379 876 l 1
EndSplineSet
EndChar

StartChar: six
Encoding: 54 54 7
Width: 816
VWidth: 200
Flags: HW
LayerCount: 2
Fore
SplineSet
94 438 m 1
 211 367 l 1
 200 247 l 1
 59 34 l 1
 59 41 l 1
 94 438 l 1
650 531 m 1
 716 490 l 1
 678 52 l 1
 560 124 l 1
 588 438 l 1
 650 531 l 1
517 438 m 1
 217 438 l 1
 299 562 l 1
 599 562 l 1
 517 438 l 1
166 469 m 1
 100 510 l 1
 138 948 l 1
 256 876 l 1
 228 562 l 1
 166 469 l 1
437 124 m 1
 639 1 l 1
 637 1 634 0 632 0 c 2
 107 0 l 1
 190 124 l 1
 437 124 l 1
379 876 m 1
 177 999 l 1
 179 999 182 1000 184 1000 c 2
 709 1000 l 1
 626 876 l 1
 379 876 l 1
EndSplineSet
EndChar

StartChar: seven
Encoding: 55 55 8
Width: 816
VWidth: 200
Flags: HW
LayerCount: 2
Fore
SplineSet
650 531 m 1
 716 490 l 1
 678 52 l 1
 560 124 l 1
 588 438 l 1
 650 531 l 1
166 469 m 1
 100 510 l 1
 138 948 l 1
 256 876 l 1
 228 562 l 1
 166 469 l 1
605 633 m 1
 616 753 l 1
 757 966 l 1
 757 959 l 1
 722 562 l 1
 605 633 l 1
379 876 m 1
 177 999 l 1
 179 999 182 1000 184 1000 c 2
 709 1000 l 1
 626 876 l 1
 379 876 l 1
EndSplineSet
EndChar

StartChar: nine
Encoding: 57 57 9
Width: 816
VWidth: 200
Flags: HW
LayerCount: 2
Fore
SplineSet
650 531 m 1
 716 490 l 1
 678 52 l 1
 560 124 l 1
 588 438 l 1
 650 531 l 1
517 438 m 1
 217 438 l 1
 299 562 l 1
 599 562 l 1
 517 438 l 1
166 469 m 1
 100 510 l 1
 138 948 l 1
 256 876 l 1
 228 562 l 1
 166 469 l 1
605 633 m 1
 616 753 l 1
 757 966 l 1
 757 959 l 1
 722 562 l 1
 605 633 l 1
437 124 m 1
 639 1 l 1
 637 1 634 0 632 0 c 2
 107 0 l 1
 190 124 l 1
 437 124 l 1
379 876 m 1
 177 999 l 1
 179 999 182 1000 184 1000 c 2
 709 1000 l 1
 626 876 l 1
 379 876 l 1
EndSplineSet
EndChar

StartChar: a
Encoding: 97 97 10
Width: 816
VWidth: 200
Flags: HW
LayerCount: 2
Fore
SplineSet
94 438 m 1
 211 367 l 1
 200 247 l 1
 59 34 l 1
 59 41 l 1
 94 438 l 1
650 531 m 1
 716 490 l 1
 678 52 l 1
 560 124 l 1
 588 438 l 1
 650 531 l 1
517 438 m 1
 217 438 l 1
 299 562 l 1
 599 562 l 1
 517 438 l 1
166 469 m 1
 100 510 l 1
 138 948 l 1
 256 876 l 1
 228 562 l 1
 166 469 l 1
605 633 m 1
 616 753 l 1
 757 966 l 1
 757 959 l 1
 722 562 l 1
 605 633 l 1
379 876 m 1
 177 999 l 1
 179 999 182 1000 184 1000 c 2
 709 1000 l 1
 626 876 l 1
 379 876 l 1
EndSplineSet
EndChar

StartChar: b
Encoding: 98 98 11
Width: 816
VWidth: 200
Flags: HW
LayerCount: 2
Fore
SplineSet
94 438 m 1
 211 367 l 1
 200 247 l 1
 59 34 l 1
 59 41 l 1
 94 438 l 1
650 531 m 1
 716 490 l 1
 678 52 l 1
 560 124 l 1
 588 438 l 1
 650 531 l 1
517 438 m 1
 217 438 l 1
 299 562 l 1
 599 562 l 1
 517 438 l 1
166 469 m 1
 100 510 l 1
 138 948 l 1
 256 876 l 1
 228 562 l 1
 166 469 l 1
437 124 m 1
 639 1 l 1
 637 1 634 0 632 0 c 2
 107 0 l 1
 190 124 l 1
 437 124 l 1
EndSplineSet
EndChar

StartChar: c
Encoding: 99 99 12
Width: 816
VWidth: 200
Flags: HW
LayerCount: 2
Fore
SplineSet
94 438 m 1
 211 367 l 1
 200 247 l 1
 59 34 l 1
 59 41 l 1
 94 438 l 1
517 438 m 1
 217 438 l 1
 299 562 l 1
 599 562 l 1
 517 438 l 1
437 124 m 1
 639 1 l 1
 637 1 634 0 632 0 c 2
 107 0 l 1
 190 124 l 1
 437 124 l 1
EndSplineSet
EndChar

StartChar: d
Encoding: 100 100 13
Width: 816
VWidth: 200
Flags: HW
LayerCount: 2
Fore
SplineSet
94 438 m 1
 211 367 l 1
 200 247 l 1
 59 34 l 1
 59 41 l 1
 94 438 l 1
650 531 m 1
 716 490 l 1
 678 52 l 1
 560 124 l 1
 588 438 l 1
 650 531 l 1
517 438 m 1
 217 438 l 1
 299 562 l 1
 599 562 l 1
 517 438 l 1
605 633 m 1
 616 753 l 1
 757 966 l 1
 757 959 l 1
 722 562 l 1
 605 633 l 1
437 124 m 1
 639 1 l 1
 637 1 634 0 632 0 c 2
 107 0 l 1
 190 124 l 1
 437 124 l 1
EndSplineSet
EndChar

StartChar: e
Encoding: 101 101 14
Width: 816
VWidth: 200
Flags: HW
LayerCount: 2
Fore
SplineSet
94 438 m 1
 211 367 l 1
 200 247 l 1
 59 34 l 1
 59 41 l 1
 94 438 l 1
517 438 m 1
 217 438 l 1
 299 562 l 1
 599 562 l 1
 517 438 l 1
166 469 m 1
 100 510 l 1
 138 948 l 1
 256 876 l 1
 228 562 l 1
 166 469 l 1
437 124 m 1
 639 1 l 1
 637 1 634 0 632 0 c 2
 107 0 l 1
 190 124 l 1
 437 124 l 1
379 876 m 1
 177 999 l 1
 179 999 182 1000 184 1000 c 2
 709 1000 l 1
 626 876 l 1
 379 876 l 1
EndSplineSet
EndChar

StartChar: f
Encoding: 102 102 15
Width: 816
VWidth: 200
Flags: HW
LayerCount: 2
Fore
SplineSet
94 438 m 1
 211 367 l 1
 200 247 l 1
 59 34 l 1
 59 41 l 1
 94 438 l 1
517 438 m 1
 217 438 l 1
 299 562 l 1
 599 562 l 1
 517 438 l 1
166 469 m 1
 100 510 l 1
 138 948 l 1
 256 876 l 1
 228 562 l 1
 166 469 l 1
379 876 m 1
 177 999 l 1
 179 999 182 1000 184 1000 c 2
 709 1000 l 1
 626 876 l 1
 379 876 l 1
EndSplineSet
EndChar

StartChar: g
Encoding: 103 103 16
Width: 816
VWidth: 200
Flags: HW
LayerCount: 2
Fore
SplineSet
94 438 m 1
 211 367 l 1
 200 247 l 1
 59 34 l 1
 59 41 l 1
 94 438 l 1
650 531 m 1
 716 490 l 1
 678 52 l 1
 560 124 l 1
 588 438 l 1
 650 531 l 1
166 469 m 1
 100 510 l 1
 138 948 l 1
 256 876 l 1
 228 562 l 1
 166 469 l 1
437 124 m 1
 639 1 l 1
 637 1 634 0 632 0 c 2
 107 0 l 1
 190 124 l 1
 437 124 l 1
379 876 m 1
 177 999 l 1
 179 999 182 1000 184 1000 c 2
 709 1000 l 1
 626 876 l 1
 379 876 l 1
EndSplineSet
EndChar

StartChar: h
Encoding: 104 104 17
Width: 816
VWidth: 200
Flags: HW
LayerCount: 2
Fore
SplineSet
94 438 m 1
 211 367 l 1
 200 247 l 1
 59 34 l 1
 59 41 l 1
 94 438 l 1
650 531 m 1
 716 490 l 1
 678 52 l 1
 560 124 l 1
 588 438 l 1
 650 531 l 1
517 438 m 1
 217 438 l 1
 299 562 l 1
 599 562 l 1
 517 438 l 1
166 469 m 1
 100 510 l 1
 138 948 l 1
 256 876 l 1
 228 562 l 1
 166 469 l 1
EndSplineSet
EndChar

StartChar: i
Encoding: 105 105 18
Width: 816
VWidth: 200
Flags: HW
LayerCount: 2
Fore
SplineSet
650 531 m 1
 716 490 l 1
 678 52 l 1
 560 124 l 1
 588 438 l 1
 650 531 l 1
EndSplineSet
EndChar

StartChar: j
Encoding: 106 106 19
Width: 816
VWidth: 200
Flags: HW
LayerCount: 2
Fore
SplineSet
94 438 m 1
 211 367 l 1
 200 247 l 1
 59 34 l 1
 59 41 l 1
 94 438 l 1
650 531 m 1
 716 490 l 1
 678 52 l 1
 560 124 l 1
 588 438 l 1
 650 531 l 1
605 633 m 1
 616 753 l 1
 757 966 l 1
 757 959 l 1
 722 562 l 1
 605 633 l 1
437 124 m 1
 639 1 l 1
 637 1 634 0 632 0 c 2
 107 0 l 1
 190 124 l 1
 437 124 l 1
EndSplineSet
EndChar

StartChar: k
Encoding: 107 107 20
Width: 816
VWidth: 200
Flags: HW
LayerCount: 2
Fore
SplineSet
94 438 m 1
 211 367 l 1
 200 247 l 1
 59 34 l 1
 59 41 l 1
 94 438 l 1
650 531 m 1
 716 490 l 1
 678 52 l 1
 560 124 l 1
 588 438 l 1
 650 531 l 1
517 438 m 1
 217 438 l 1
 299 562 l 1
 599 562 l 1
 517 438 l 1
166 469 m 1
 100 510 l 1
 138 948 l 1
 256 876 l 1
 228 562 l 1
 166 469 l 1
379 876 m 1
 177 999 l 1
 179 999 182 1000 184 1000 c 2
 709 1000 l 1
 626 876 l 1
 379 876 l 1
EndSplineSet
EndChar

StartChar: l
Encoding: 108 108 21
Width: 816
VWidth: 200
Flags: HW
LayerCount: 2
Fore
SplineSet
94 438 m 1
 211 367 l 1
 200 247 l 1
 59 34 l 1
 59 41 l 1
 94 438 l 1
166 469 m 1
 100 510 l 1
 138 948 l 1
 256 876 l 1
 228 562 l 1
 166 469 l 1
437 124 m 1
 639 1 l 1
 637 1 634 0 632 0 c 2
 107 0 l 1
 190 124 l 1
 437 124 l 1
EndSplineSet
EndChar

StartChar: m
Encoding: 109 109 22
Width: 816
VWidth: 200
Flags: HW
LayerCount: 2
Fore
SplineSet
94 438 m 1
 211 367 l 1
 200 247 l 1
 59 34 l 1
 59 41 l 1
 94 438 l 1
650 531 m 1
 716 490 l 1
 678 52 l 1
 560 124 l 1
 588 438 l 1
 650 531 l 1
166 469 m 1
 100 510 l 1
 138 948 l 1
 256 876 l 1
 228 562 l 1
 166 469 l 1
605 633 m 1
 616 753 l 1
 757 966 l 1
 757 959 l 1
 722 562 l 1
 605 633 l 1
379 876 m 1
 177 999 l 1
 179 999 182 1000 184 1000 c 2
 709 1000 l 1
 626 876 l 1
 379 876 l 1
EndSplineSet
EndChar

StartChar: n
Encoding: 110 110 23
Width: 816
VWidth: 200
Flags: HW
LayerCount: 2
Fore
SplineSet
94 438 m 1
 211 367 l 1
 200 247 l 1
 59 34 l 1
 59 41 l 1
 94 438 l 1
650 531 m 1
 716 490 l 1
 678 52 l 1
 560 124 l 1
 588 438 l 1
 650 531 l 1
517 438 m 1
 217 438 l 1
 299 562 l 1
 599 562 l 1
 517 438 l 1
EndSplineSet
EndChar

StartChar: o
Encoding: 111 111 24
Width: 816
VWidth: 200
Flags: HW
LayerCount: 2
Fore
SplineSet
94 438 m 1
 211 367 l 1
 200 247 l 1
 59 34 l 1
 59 41 l 1
 94 438 l 1
650 531 m 1
 716 490 l 1
 678 52 l 1
 560 124 l 1
 588 438 l 1
 650 531 l 1
517 438 m 1
 217 438 l 1
 299 562 l 1
 599 562 l 1
 517 438 l 1
437 124 m 1
 639 1 l 1
 637 1 634 0 632 0 c 2
 107 0 l 1
 190 124 l 1
 437 124 l 1
EndSplineSet
EndChar

StartChar: p
Encoding: 112 112 25
Width: 816
VWidth: 200
Flags: HW
LayerCount: 2
Fore
SplineSet
94 438 m 1
 211 367 l 1
 200 247 l 1
 59 34 l 1
 59 41 l 1
 94 438 l 1
517 438 m 1
 217 438 l 1
 299 562 l 1
 599 562 l 1
 517 438 l 1
166 469 m 1
 100 510 l 1
 138 948 l 1
 256 876 l 1
 228 562 l 1
 166 469 l 1
605 633 m 1
 616 753 l 1
 757 966 l 1
 757 959 l 1
 722 562 l 1
 605 633 l 1
379 876 m 1
 177 999 l 1
 179 999 182 1000 184 1000 c 2
 709 1000 l 1
 626 876 l 1
 379 876 l 1
EndSplineSet
EndChar

StartChar: q
Encoding: 113 113 26
Width: 816
VWidth: 200
Flags: HW
LayerCount: 2
Fore
SplineSet
650 531 m 1
 716 490 l 1
 678 52 l 1
 560 124 l 1
 588 438 l 1
 650 531 l 1
517 438 m 1
 217 438 l 1
 299 562 l 1
 599 562 l 1
 517 438 l 1
166 469 m 1
 100 510 l 1
 138 948 l 1
 256 876 l 1
 228 562 l 1
 166 469 l 1
605 633 m 1
 616 753 l 1
 757 966 l 1
 757 959 l 1
 722 562 l 1
 605 633 l 1
379 876 m 1
 177 999 l 1
 179 999 182 1000 184 1000 c 2
 709 1000 l 1
 626 876 l 1
 379 876 l 1
EndSplineSet
EndChar

StartChar: r
Encoding: 114 114 27
Width: 816
VWidth: 200
Flags: HW
LayerCount: 2
Fore
SplineSet
94 438 m 1
 211 367 l 1
 200 247 l 1
 59 34 l 1
 59 41 l 1
 94 438 l 1
517 438 m 1
 217 438 l 1
 299 562 l 1
 599 562 l 1
 517 438 l 1
EndSplineSet
EndChar

StartChar: s
Encoding: 115 115 28
Width: 816
VWidth: 200
Flags: HW
LayerCount: 2
Fore
SplineSet
650 531 m 1
 716 490 l 1
 678 52 l 1
 560 124 l 1
 588 438 l 1
 650 531 l 1
517 438 m 1
 217 438 l 1
 299 562 l 1
 599 562 l 1
 517 438 l 1
166 469 m 1
 100 510 l 1
 138 948 l 1
 256 876 l 1
 228 562 l 1
 166 469 l 1
437 124 m 1
 639 1 l 1
 637 1 634 0 632 0 c 2
 107 0 l 1
 190 124 l 1
 437 124 l 1
EndSplineSet
EndChar

StartChar: t
Encoding: 116 116 29
Width: 816
VWidth: 200
Flags: HW
LayerCount: 2
Fore
SplineSet
94 438 m 1
 211 367 l 1
 200 247 l 1
 59 34 l 1
 59 41 l 1
 94 438 l 1
517 438 m 1
 217 438 l 1
 299 562 l 1
 599 562 l 1
 517 438 l 1
166 469 m 1
 100 510 l 1
 138 948 l 1
 256 876 l 1
 228 562 l 1
 166 469 l 1
437 124 m 1
 639 1 l 1
 637 1 634 0 632 0 c 2
 107 0 l 1
 190 124 l 1
 437 124 l 1
EndSplineSet
EndChar

StartChar: u
Encoding: 117 117 30
Width: 816
VWidth: 200
Flags: HW
LayerCount: 2
Fore
SplineSet
94 438 m 1
 211 367 l 1
 200 247 l 1
 59 34 l 1
 59 41 l 1
 94 438 l 1
650 531 m 1
 716 490 l 1
 678 52 l 1
 560 124 l 1
 588 438 l 1
 650 531 l 1
437 124 m 1
 639 1 l 1
 637 1 634 0 632 0 c 2
 107 0 l 1
 190 124 l 1
 437 124 l 1
EndSplineSet
EndChar

StartChar: v
Encoding: 118 118 31
Width: 816
VWidth: 200
Flags: HW
LayerCount: 2
Fore
SplineSet
94 438 m 1
 211 367 l 1
 200 247 l 1
 59 34 l 1
 59 41 l 1
 94 438 l 1
650 531 m 1
 716 490 l 1
 678 52 l 1
 560 124 l 1
 588 438 l 1
 650 531 l 1
166 469 m 1
 100 510 l 1
 138 948 l 1
 256 876 l 1
 228 562 l 1
 166 469 l 1
605 633 m 1
 616 753 l 1
 757 966 l 1
 757 959 l 1
 722 562 l 1
 605 633 l 1
437 124 m 1
 639 1 l 1
 637 1 634 0 632 0 c 2
 107 0 l 1
 190 124 l 1
 437 124 l 1
EndSplineSet
EndChar

StartChar: w
Encoding: 119 119 32
Width: 816
VWidth: 200
Flags: HW
LayerCount: 2
Fore
SplineSet
94 438 m 1
 211 367 l 1
 200 247 l 1
 59 34 l 1
 59 41 l 1
 94 438 l 1
650 531 m 1
 716 490 l 1
 678 52 l 1
 560 124 l 1
 588 438 l 1
 650 531 l 1
517 438 m 1
 217 438 l 1
 299 562 l 1
 599 562 l 1
 517 438 l 1
166 469 m 1
 100 510 l 1
 138 948 l 1
 256 876 l 1
 228 562 l 1
 166 469 l 1
605 633 m 1
 616 753 l 1
 757 966 l 1
 757 959 l 1
 722 562 l 1
 605 633 l 1
437 124 m 1
 639 1 l 1
 637 1 634 0 632 0 c 2
 107 0 l 1
 190 124 l 1
 437 124 l 1
EndSplineSet
EndChar

StartChar: x
Encoding: 120 120 33
Width: 816
VWidth: 200
Flags: HW
LayerCount: 2
Fore
SplineSet
94 438 m 1
 211 367 l 1
 200 247 l 1
 59 34 l 1
 59 41 l 1
 94 438 l 1
650 531 m 1
 716 490 l 1
 678 52 l 1
 560 124 l 1
 588 438 l 1
 650 531 l 1
517 438 m 1
 217 438 l 1
 299 562 l 1
 599 562 l 1
 517 438 l 1
166 469 m 1
 100 510 l 1
 138 948 l 1
 256 876 l 1
 228 562 l 1
 166 469 l 1
605 633 m 1
 616 753 l 1
 757 966 l 1
 757 959 l 1
 722 562 l 1
 605 633 l 1
EndSplineSet
EndChar

StartChar: y
Encoding: 121 121 34
Width: 816
VWidth: 200
Flags: HW
LayerCount: 2
Fore
SplineSet
650 531 m 1
 716 490 l 1
 678 52 l 1
 560 124 l 1
 588 438 l 1
 650 531 l 1
517 438 m 1
 217 438 l 1
 299 562 l 1
 599 562 l 1
 517 438 l 1
166 469 m 1
 100 510 l 1
 138 948 l 1
 256 876 l 1
 228 562 l 1
 166 469 l 1
605 633 m 1
 616 753 l 1
 757 966 l 1
 757 959 l 1
 722 562 l 1
 605 633 l 1
437 124 m 1
 639 1 l 1
 637 1 634 0 632 0 c 2
 107 0 l 1
 190 124 l 1
 437 124 l 1
EndSplineSet
EndChar

StartChar: z
Encoding: 122 122 35
Width: 816
VWidth: 200
Flags: HW
LayerCount: 2
Fore
SplineSet
94 438 m 1
 211 367 l 1
 200 247 l 1
 59 34 l 1
 59 41 l 1
 94 438 l 1
605 633 m 1
 616 753 l 1
 757 966 l 1
 757 959 l 1
 722 562 l 1
 605 633 l 1
437 124 m 1
 639 1 l 1
 637 1 634 0 632 0 c 2
 107 0 l 1
 190 124 l 1
 437 124 l 1
379 876 m 1
 177 999 l 1
 179 999 182 1000 184 1000 c 2
 709 1000 l 1
 626 876 l 1
 379 876 l 1
EndSplineSet
EndChar

StartChar: A
Encoding: 65 65 36
Width: 816
VWidth: 200
Flags: HW
LayerCount: 2
Fore
SplineSet
94 438 m 1
 211 367 l 1
 200 247 l 1
 59 34 l 1
 59 41 l 1
 94 438 l 1
650 531 m 1
 716 490 l 1
 678 52 l 1
 560 124 l 1
 588 438 l 1
 650 531 l 1
517 438 m 1
 217 438 l 1
 299 562 l 1
 599 562 l 1
 517 438 l 1
166 469 m 1
 100 510 l 1
 138 948 l 1
 256 876 l 1
 228 562 l 1
 166 469 l 1
605 633 m 1
 616 753 l 1
 757 966 l 1
 757 959 l 1
 722 562 l 1
 605 633 l 1
379 876 m 1
 177 999 l 1
 179 999 182 1000 184 1000 c 2
 709 1000 l 1
 626 876 l 1
 379 876 l 1
EndSplineSet
EndChar

StartChar: B
Encoding: 66 66 37
Width: 816
VWidth: 200
Flags: HW
LayerCount: 2
Fore
SplineSet
94 438 m 1
 211 367 l 1
 200 247 l 1
 59 34 l 1
 59 41 l 1
 94 438 l 1
650 531 m 1
 716 490 l 1
 678 52 l 1
 560 124 l 1
 588 438 l 1
 650 531 l 1
517 438 m 1
 217 438 l 1
 299 562 l 1
 599 562 l 1
 517 438 l 1
166 469 m 1
 100 510 l 1
 138 948 l 1
 256 876 l 1
 228 562 l 1
 166 469 l 1
437 124 m 1
 639 1 l 1
 637 1 634 0 632 0 c 2
 107 0 l 1
 190 124 l 1
 437 124 l 1
EndSplineSet
EndChar

StartChar: C
Encoding: 67 67 38
Width: 816
VWidth: 200
Flags: HW
LayerCount: 2
Fore
SplineSet
94 438 m 1
 211 367 l 1
 200 247 l 1
 59 34 l 1
 59 41 l 1
 94 438 l 1
517 438 m 1
 217 438 l 1
 299 562 l 1
 599 562 l 1
 517 438 l 1
437 124 m 1
 639 1 l 1
 637 1 634 0 632 0 c 2
 107 0 l 1
 190 124 l 1
 437 124 l 1
EndSplineSet
EndChar

StartChar: D
Encoding: 68 68 39
Width: 816
VWidth: 200
Flags: HW
LayerCount: 2
Fore
SplineSet
94 438 m 1
 211 367 l 1
 200 247 l 1
 59 34 l 1
 59 41 l 1
 94 438 l 1
650 531 m 1
 716 490 l 1
 678 52 l 1
 560 124 l 1
 588 438 l 1
 650 531 l 1
517 438 m 1
 217 438 l 1
 299 562 l 1
 599 562 l 1
 517 438 l 1
605 633 m 1
 616 753 l 1
 757 966 l 1
 757 959 l 1
 722 562 l 1
 605 633 l 1
437 124 m 1
 639 1 l 1
 637 1 634 0 632 0 c 2
 107 0 l 1
 190 124 l 1
 437 124 l 1
EndSplineSet
EndChar

StartChar: E
Encoding: 69 69 40
Width: 816
VWidth: 200
Flags: HW
LayerCount: 2
Fore
SplineSet
94 438 m 1
 211 367 l 1
 200 247 l 1
 59 34 l 1
 59 41 l 1
 94 438 l 1
517 438 m 1
 217 438 l 1
 299 562 l 1
 599 562 l 1
 517 438 l 1
166 469 m 1
 100 510 l 1
 138 948 l 1
 256 876 l 1
 228 562 l 1
 166 469 l 1
437 124 m 1
 639 1 l 1
 637 1 634 0 632 0 c 2
 107 0 l 1
 190 124 l 1
 437 124 l 1
379 876 m 1
 177 999 l 1
 179 999 182 1000 184 1000 c 2
 709 1000 l 1
 626 876 l 1
 379 876 l 1
EndSplineSet
EndChar

StartChar: F
Encoding: 70 70 41
Width: 816
VWidth: 200
Flags: HW
LayerCount: 2
Fore
SplineSet
94 438 m 1
 211 367 l 1
 200 247 l 1
 59 34 l 1
 59 41 l 1
 94 438 l 1
517 438 m 1
 217 438 l 1
 299 562 l 1
 599 562 l 1
 517 438 l 1
166 469 m 1
 100 510 l 1
 138 948 l 1
 256 876 l 1
 228 562 l 1
 166 469 l 1
379 876 m 1
 177 999 l 1
 179 999 182 1000 184 1000 c 2
 709 1000 l 1
 626 876 l 1
 379 876 l 1
EndSplineSet
EndChar

StartChar: G
Encoding: 71 71 42
Width: 816
VWidth: 200
Flags: HW
LayerCount: 2
Fore
SplineSet
94 438 m 1
 211 367 l 1
 200 247 l 1
 59 34 l 1
 59 41 l 1
 94 438 l 1
650 531 m 1
 716 490 l 1
 678 52 l 1
 560 124 l 1
 588 438 l 1
 650 531 l 1
166 469 m 1
 100 510 l 1
 138 948 l 1
 256 876 l 1
 228 562 l 1
 166 469 l 1
437 124 m 1
 639 1 l 1
 637 1 634 0 632 0 c 2
 107 0 l 1
 190 124 l 1
 437 124 l 1
379 876 m 1
 177 999 l 1
 179 999 182 1000 184 1000 c 2
 709 1000 l 1
 626 876 l 1
 379 876 l 1
EndSplineSet
EndChar

StartChar: H
Encoding: 72 72 43
Width: 816
VWidth: 200
Flags: HW
LayerCount: 2
Fore
SplineSet
94 438 m 1
 211 367 l 1
 200 247 l 1
 59 34 l 1
 59 41 l 1
 94 438 l 1
650 531 m 1
 716 490 l 1
 678 52 l 1
 560 124 l 1
 588 438 l 1
 650 531 l 1
517 438 m 1
 217 438 l 1
 299 562 l 1
 599 562 l 1
 517 438 l 1
166 469 m 1
 100 510 l 1
 138 948 l 1
 256 876 l 1
 228 562 l 1
 166 469 l 1
EndSplineSet
EndChar

StartChar: I
Encoding: 73 73 44
Width: 816
VWidth: 200
Flags: HW
LayerCount: 2
Fore
SplineSet
650 531 m 1
 716 490 l 1
 678 52 l 1
 560 124 l 1
 588 438 l 1
 650 531 l 1
EndSplineSet
EndChar

StartChar: J
Encoding: 74 74 45
Width: 816
VWidth: 200
Flags: HW
LayerCount: 2
Fore
SplineSet
94 438 m 1
 211 367 l 1
 200 247 l 1
 59 34 l 1
 59 41 l 1
 94 438 l 1
650 531 m 1
 716 490 l 1
 678 52 l 1
 560 124 l 1
 588 438 l 1
 650 531 l 1
605 633 m 1
 616 753 l 1
 757 966 l 1
 757 959 l 1
 722 562 l 1
 605 633 l 1
437 124 m 1
 639 1 l 1
 637 1 634 0 632 0 c 2
 107 0 l 1
 190 124 l 1
 437 124 l 1
EndSplineSet
EndChar

StartChar: K
Encoding: 75 75 46
Width: 816
VWidth: 200
Flags: HW
LayerCount: 2
Fore
SplineSet
94 438 m 1
 211 367 l 1
 200 247 l 1
 59 34 l 1
 59 41 l 1
 94 438 l 1
650 531 m 1
 716 490 l 1
 678 52 l 1
 560 124 l 1
 588 438 l 1
 650 531 l 1
517 438 m 1
 217 438 l 1
 299 562 l 1
 599 562 l 1
 517 438 l 1
166 469 m 1
 100 510 l 1
 138 948 l 1
 256 876 l 1
 228 562 l 1
 166 469 l 1
379 876 m 1
 177 999 l 1
 179 999 182 1000 184 1000 c 2
 709 1000 l 1
 626 876 l 1
 379 876 l 1
EndSplineSet
EndChar

StartChar: L
Encoding: 76 76 47
Width: 816
VWidth: 200
Flags: HW
LayerCount: 2
Fore
SplineSet
94 438 m 1
 211 367 l 1
 200 247 l 1
 59 34 l 1
 59 41 l 1
 94 438 l 1
166 469 m 1
 100 510 l 1
 138 948 l 1
 256 876 l 1
 228 562 l 1
 166 469 l 1
437 124 m 1
 639 1 l 1
 637 1 634 0 632 0 c 2
 107 0 l 1
 190 124 l 1
 437 124 l 1
EndSplineSet
EndChar

StartChar: M
Encoding: 77 77 48
Width: 816
VWidth: 200
Flags: HW
LayerCount: 2
Fore
SplineSet
94 438 m 1
 211 367 l 1
 200 247 l 1
 59 34 l 1
 59 41 l 1
 94 438 l 1
650 531 m 1
 716 490 l 1
 678 52 l 1
 560 124 l 1
 588 438 l 1
 650 531 l 1
166 469 m 1
 100 510 l 1
 138 948 l 1
 256 876 l 1
 228 562 l 1
 166 469 l 1
605 633 m 1
 616 753 l 1
 757 966 l 1
 757 959 l 1
 722 562 l 1
 605 633 l 1
379 876 m 1
 177 999 l 1
 179 999 182 1000 184 1000 c 2
 709 1000 l 1
 626 876 l 1
 379 876 l 1
EndSplineSet
EndChar

StartChar: N
Encoding: 78 78 49
Width: 816
VWidth: 200
Flags: HW
LayerCount: 2
Fore
SplineSet
94 438 m 1
 211 367 l 1
 200 247 l 1
 59 34 l 1
 59 41 l 1
 94 438 l 1
650 531 m 1
 716 490 l 1
 678 52 l 1
 560 124 l 1
 588 438 l 1
 650 531 l 1
517 438 m 1
 217 438 l 1
 299 562 l 1
 599 562 l 1
 517 438 l 1
EndSplineSet
EndChar

StartChar: O
Encoding: 79 79 50
Width: 816
VWidth: 200
Flags: HW
LayerCount: 2
Fore
SplineSet
94 438 m 1
 211 367 l 1
 200 247 l 1
 59 34 l 1
 59 41 l 1
 94 438 l 1
650 531 m 1
 716 490 l 1
 678 52 l 1
 560 124 l 1
 588 438 l 1
 650 531 l 1
517 438 m 1
 217 438 l 1
 299 562 l 1
 599 562 l 1
 517 438 l 1
437 124 m 1
 639 1 l 1
 637 1 634 0 632 0 c 2
 107 0 l 1
 190 124 l 1
 437 124 l 1
EndSplineSet
EndChar

StartChar: P
Encoding: 80 80 51
Width: 816
VWidth: 200
Flags: HW
LayerCount: 2
Fore
SplineSet
94 438 m 1
 211 367 l 1
 200 247 l 1
 59 34 l 1
 59 41 l 1
 94 438 l 1
517 438 m 1
 217 438 l 1
 299 562 l 1
 599 562 l 1
 517 438 l 1
166 469 m 1
 100 510 l 1
 138 948 l 1
 256 876 l 1
 228 562 l 1
 166 469 l 1
605 633 m 1
 616 753 l 1
 757 966 l 1
 757 959 l 1
 722 562 l 1
 605 633 l 1
379 876 m 1
 177 999 l 1
 179 999 182 1000 184 1000 c 2
 709 1000 l 1
 626 876 l 1
 379 876 l 1
EndSplineSet
EndChar

StartChar: Q
Encoding: 81 81 52
Width: 816
VWidth: 200
Flags: HW
LayerCount: 2
Fore
SplineSet
650 531 m 1
 716 490 l 1
 678 52 l 1
 560 124 l 1
 588 438 l 1
 650 531 l 1
517 438 m 1
 217 438 l 1
 299 562 l 1
 599 562 l 1
 517 438 l 1
166 469 m 1
 100 510 l 1
 138 948 l 1
 256 876 l 1
 228 562 l 1
 166 469 l 1
605 633 m 1
 616 753 l 1
 757 966 l 1
 757 959 l 1
 722 562 l 1
 605 633 l 1
379 876 m 1
 177 999 l 1
 179 999 182 1000 184 1000 c 2
 709 1000 l 1
 626 876 l 1
 379 876 l 1
EndSplineSet
EndChar

StartChar: R
Encoding: 82 82 53
Width: 816
VWidth: 200
Flags: HW
LayerCount: 2
Fore
SplineSet
94 438 m 1
 211 367 l 1
 200 247 l 1
 59 34 l 1
 59 41 l 1
 94 438 l 1
517 438 m 1
 217 438 l 1
 299 562 l 1
 599 562 l 1
 517 438 l 1
EndSplineSet
EndChar

StartChar: S
Encoding: 83 83 54
Width: 816
VWidth: 200
Flags: HW
LayerCount: 2
Fore
SplineSet
650 531 m 1
 716 490 l 1
 678 52 l 1
 560 124 l 1
 588 438 l 1
 650 531 l 1
517 438 m 1
 217 438 l 1
 299 562 l 1
 599 562 l 1
 517 438 l 1
166 469 m 1
 100 510 l 1
 138 948 l 1
 256 876 l 1
 228 562 l 1
 166 469 l 1
437 124 m 1
 639 1 l 1
 637 1 634 0 632 0 c 2
 107 0 l 1
 190 124 l 1
 437 124 l 1
EndSplineSet
EndChar

StartChar: T
Encoding: 84 84 55
Width: 816
VWidth: 200
Flags: HW
LayerCount: 2
Fore
SplineSet
94 438 m 1
 211 367 l 1
 200 247 l 1
 59 34 l 1
 59 41 l 1
 94 438 l 1
517 438 m 1
 217 438 l 1
 299 562 l 1
 599 562 l 1
 517 438 l 1
166 469 m 1
 100 510 l 1
 138 948 l 1
 256 876 l 1
 228 562 l 1
 166 469 l 1
437 124 m 1
 639 1 l 1
 637 1 634 0 632 0 c 2
 107 0 l 1
 190 124 l 1
 437 124 l 1
EndSplineSet
EndChar

StartChar: U
Encoding: 85 85 56
Width: 816
VWidth: 200
Flags: HW
LayerCount: 2
Fore
SplineSet
94 438 m 1
 211 367 l 1
 200 247 l 1
 59 34 l 1
 59 41 l 1
 94 438 l 1
650 531 m 1
 716 490 l 1
 678 52 l 1
 560 124 l 1
 588 438 l 1
 650 531 l 1
437 124 m 1
 639 1 l 1
 637 1 634 0 632 0 c 2
 107 0 l 1
 190 124 l 1
 437 124 l 1
EndSplineSet
EndChar

StartChar: V
Encoding: 86 86 57
Width: 816
VWidth: 200
Flags: HW
LayerCount: 2
Fore
SplineSet
94 438 m 1
 211 367 l 1
 200 247 l 1
 59 34 l 1
 59 41 l 1
 94 438 l 1
650 531 m 1
 716 490 l 1
 678 52 l 1
 560 124 l 1
 588 438 l 1
 650 531 l 1
166 469 m 1
 100 510 l 1
 138 948 l 1
 256 876 l 1
 228 562 l 1
 166 469 l 1
605 633 m 1
 616 753 l 1
 757 966 l 1
 757 959 l 1
 722 562 l 1
 605 633 l 1
437 124 m 1
 639 1 l 1
 637 1 634 0 632 0 c 2
 107 0 l 1
 190 124 l 1
 437 124 l 1
EndSplineSet
EndChar

StartChar: W
Encoding: 87 87 58
Width: 816
VWidth: 200
Flags: HW
LayerCount: 2
Fore
SplineSet
94 438 m 1
 211 367 l 1
 200 247 l 1
 59 34 l 1
 59 41 l 1
 94 438 l 1
650 531 m 1
 716 490 l 1
 678 52 l 1
 560 124 l 1
 588 438 l 1
 650 531 l 1
517 438 m 1
 217 438 l 1
 299 562 l 1
 599 562 l 1
 517 438 l 1
166 469 m 1
 100 510 l 1
 138 948 l 1
 256 876 l 1
 228 562 l 1
 166 469 l 1
605 633 m 1
 616 753 l 1
 757 966 l 1
 757 959 l 1
 722 562 l 1
 605 633 l 1
437 124 m 1
 639 1 l 1
 637 1 634 0 632 0 c 2
 107 0 l 1
 190 124 l 1
 437 124 l 1
EndSplineSet
EndChar

StartChar: X
Encoding: 88 88 59
Width: 816
VWidth: 200
Flags: HW
LayerCount: 2
Fore
SplineSet
94 438 m 1
 211 367 l 1
 200 247 l 1
 59 34 l 1
 59 41 l 1
 94 438 l 1
650 531 m 1
 716 490 l 1
 678 52 l 1
 560 124 l 1
 588 438 l 1
 650 531 l 1
517 438 m 1
 217 438 l 1
 299 562 l 1
 599 562 l 1
 517 438 l 1
166 469 m 1
 100 510 l 1
 138 948 l 1
 256 876 l 1
 228 562 l 1
 166 469 l 1
605 633 m 1
 616 753 l 1
 757 966 l 1
 757 959 l 1
 722 562 l 1
 605 633 l 1
EndSplineSet
EndChar

StartChar: Y
Encoding: 89 89 60
Width: 816
VWidth: 200
Flags: HW
LayerCount: 2
Fore
SplineSet
650 531 m 1
 716 490 l 1
 678 52 l 1
 560 124 l 1
 588 438 l 1
 650 531 l 1
517 438 m 1
 217 438 l 1
 299 562 l 1
 599 562 l 1
 517 438 l 1
166 469 m 1
 100 510 l 1
 138 948 l 1
 256 876 l 1
 228 562 l 1
 166 469 l 1
605 633 m 1
 616 753 l 1
 757 966 l 1
 757 959 l 1
 722 562 l 1
 605 633 l 1
437 124 m 1
 639 1 l 1
 637 1 634 0 632 0 c 2
 107 0 l 1
 190 124 l 1
 437 124 l 1
EndSplineSet
EndChar

StartChar: Z
Encoding: 90 90 61
Width: 816
VWidth: 200
Flags: HW
LayerCount: 2
Fore
SplineSet
94 438 m 1
 211 367 l 1
 200 247 l 1
 59 34 l 1
 59 41 l 1
 94 438 l 1
605 633 m 1
 616 753 l 1
 757 966 l 1
 757 959 l 1
 722 562 l 1
 605 633 l 1
437 124 m 1
 639 1 l 1
 637 1 634 0 632 0 c 2
 107 0 l 1
 190 124 l 1
 437 124 l 1
379 876 m 1
 177 999 l 1
 179 999 182 1000 184 1000 c 2
 709 1000 l 1
 626 876 l 1
 379 876 l 1
EndSplineSet
EndChar

StartChar: hyphen
Encoding: 45 45 62
Width: 816
VWidth: 200
Flags: HW
LayerCount: 2
Fore
SplineSet
517 438 m 1
 217 438 l 1
 299 562 l 1
 599 562 l 1
 517 438 l 1
EndSplineSet
EndChar

StartChar: colon
Encoding: 58 58 63
Width: 200
VWidth: 0
Flags: HW
LayerCount: 2
Fore
SplineSet
100 486 m 1
 100 486 l 1
180 693 m 0
 180 684 178 676 175 669 c 0
 172 662 168 655 162 649 c 0
 156 643 149 639 142 636 c 0
 135 633 127 631 118 631 c 0
 109 631 101 633 94 636 c 0
 87 639 80 643 74 649 c 0
 68 655 64 662 61 669 c 0
 58 676 56 684 56 693 c 0
 56 702 58 710 61 717 c 0
 64 724 68 730 74 736 c 0
 80 742 87 747 94 750 c 0
 101 753 109 754 118 754 c 0
 127 754 135 753 142 750 c 0
 149 747 156 742 162 736 c 0
 168 730 172 724 175 717 c 0
 178 710 180 702 180 693 c 0
144 281 m 0
 144 272 142 264 139 257 c 0
 136 250 132 243 126 237 c 0
 120 231 113 227 106 224 c 0
 99 221 91 219 82 219 c 0
 73 219 65 221 58 224 c 0
 51 227 44 231 38 237 c 0
 32 243 28 250 25 257 c 0
 22 264 20 272 20 281 c 0
 20 290 22 298 25 305 c 0
 28 312 32 318 38 324 c 0
 44 330 51 335 58 338 c 0
 65 341 73 342 82 342 c 0
 91 342 99 341 106 338 c 0
 113 335 120 330 126 324 c 0
 132 318 136 312 139 305 c 0
 142 298 144 290 144 281 c 0
EndSplineSet
EndChar

StartChar: period
Encoding: 46 46 64
Width: 0
VWidth: 0
Flags: HWO
LayerCount: 2
Fore
SplineSet
18 62 m 0
 18 53 16 45 13 38 c 0
 10 31 6 24 0 18 c 0
 -6 12 -13 8 -20 5 c 0
 -27 2 -35 0 -44 0 c 0
 -53 0 -61 2 -68 5 c 0
 -75 8 -82 12 -88 18 c 0
 -94 24 -98 31 -101 38 c 0
 -104 45 -106 53 -106 62 c 0
 -106 71 -104 79 -101 86 c 0
 -98 93 -94 100 -88 106 c 0
 -82 112 -75 116 -68 119 c 0
 -61 122 -53 124 -44 124 c 0
 -35 124 -27 122 -20 119 c 0
 -13 116 -6 112 0 106 c 0
 6 100 10 93 13 86 c 0
 16 79 18 71 18 62 c 0
EndSplineSet
EndChar

StartChar: underscore
Encoding: 95 95 67
Width: 816
VWidth: 200
Flags: HW
LayerCount: 2
Fore
SplineSet
437 124 m 1
 639 1 l 1
 637 1 634 0 632 0 c 2
 107 0 l 1
 190 124 l 1
 437 124 l 1
EndSplineSet
EndChar

StartChar: degree
Encoding: 176 176 68
Width: 816
VWidth: 200
Flags: HW
LayerCount: 2
Fore
SplineSet
517 438 m 1
 217 438 l 1
 299 562 l 1
 599 562 l 1
 517 438 l 1
166 469 m 1
 100 510 l 1
 138 948 l 1
 256 876 l 1
 228 562 l 1
 166 469 l 1
605 633 m 1
 616 753 l 1
 757 966 l 1
 757 959 l 1
 722 562 l 1
 605 633 l 1
379 876 m 1
 177 999 l 1
 179 999 182 1000 184 1000 c 2
 709 1000 l 1
 626 876 l 1
 379 876 l 1
EndSplineSet
EndChar
